<?xml version="1.0" encoding="UTF-8"?>
<svg version="1.1" xmlns="http://www.w3.org/2000/svg" width="748" height="218">
<path d="M0 0 C5.94 0 11.88 0 18 0 C18.87588798 4.37943992 19.13055618 8.28937351 19.09765625 12.70703125 C19.09664917 13.35071655 19.09564209 13.99440186 19.09460449 14.65759277 C19.08940599 17.04258019 19.07544492 19.42754205 19.0625 21.8125 C19.041875 27.154375 19.02125 32.49625 19 38 C38.8 38.495 38.8 38.495 59 39 C59 26.13 59 13.26 59 0 C64.61 0 70.22 0 76 0 C76 31.68 76 63.36 76 96 C70.39 96 64.78 96 59 96 C58.67 83.13 58.34 70.26 58 57 C45.13 57 32.26 57 19 57 C19 69.87 19 82.74 19 96 C15.6717269 97.66413655 12.00266027 96.81867406 8.375 96.5625 C7.57320312 96.51029297 6.77140625 96.45808594 5.9453125 96.40429688 C3.96320897 96.27451629 1.98155501 96.13790265 0 96 C-1.12175397 91.50912176 -1.14118693 87.10741312 -1.12939453 82.50952148 C-1.13114685 81.66665588 -1.13289917 80.82379028 -1.13470459 79.9553833 C-1.13909562 77.17726567 -1.13619505 74.399212 -1.1328125 71.62109375 C-1.13348627 69.68726082 -1.1344569 67.75342798 -1.13571167 65.81959534 C-1.13718486 61.77042839 -1.13504598 57.72128352 -1.13037109 53.67211914 C-1.12467023 48.48127456 -1.12795748 43.29048164 -1.13394356 38.09963894 C-1.1375561 34.10797231 -1.13640745 30.11631795 -1.13381577 26.12465096 C-1.13314862 24.21048031 -1.13396752 22.29630855 -1.13629532 20.38213921 C-1.1388336 17.70842409 -1.13496476 15.03479285 -1.12939453 12.36108398 C-1.13141876 11.56980606 -1.13344299 10.77852814 -1.13552856 9.96327209 C-1.12177254 6.40060819 -0.87098985 3.48395939 0 0 Z " fill="#86C621" transform="translate(6,63)"/>
<path d="M0 0 C0.79011475 0.00829834 1.58022949 0.01659668 2.39428711 0.02514648 C12.74522626 0.32410978 20.70664047 4.14704322 28.125 11.4375 C29.375 13.65625 29.375 13.65625 30.125 15.4375 C30.785 15.4375 31.445 15.4375 32.125 15.4375 C35.129847 20.62769027 36.15910672 25.60569151 37.125 31.4375 C37.49625 33.355625 37.49625 33.355625 37.875 35.3125 C38.8888902 44.62526924 36.09420422 53.63700501 31.125 61.4375 C28.8125 64.125 28.8125 64.125 26.125 66.4375 C25.56167969 67.01371094 24.99835938 67.58992188 24.41796875 68.18359375 C19.17195102 73.32276794 14.2876844 75.1498264 7.125 76.4375 C6.3103125 76.6025 5.495625 76.7675 4.65625 76.9375 C-2.5407661 78.0591129 -8.93638804 76.36247542 -15.875 74.4375 C-15.875 73.7775 -15.875 73.1175 -15.875 72.4375 C-17.525 72.1075 -19.175 71.7775 -20.875 71.4375 C-20.875 70.7775 -20.875 70.1175 -20.875 69.4375 C-21.473125 69.14875 -22.07125 68.86 -22.6875 68.5625 C-24.875 67.4375 -24.875 67.4375 -27.875 65.4375 C-27.875 64.7775 -27.875 64.1175 -27.875 63.4375 C-28.535 63.4375 -29.195 63.4375 -29.875 63.4375 C-32.875 57.8125 -32.875 57.8125 -32.875 54.4375 C-33.535 54.1075 -34.195 53.7775 -34.875 53.4375 C-38.88942448 42.33879703 -38.16124611 32.52931833 -33.734375 21.62890625 C-31.43042919 16.72208495 -29.08115196 12.95892955 -24.875 9.4375 C-23.9778125 8.68339844 -23.9778125 8.68339844 -23.0625 7.9140625 C-15.88108157 2.16331727 -9.18696778 -0.12498606 0 0 Z M-1.875 21.4375 C-2.07996094 22.05238281 -2.28492187 22.66726562 -2.49609375 23.30078125 C-3.62239583 26.6796875 -4.74869792 30.05859375 -5.875 33.4375 C-6.90625 33.2725 -7.9375 33.1075 -9 32.9375 C-12.35744326 32.50428152 -15.49836157 32.35514297 -18.875 32.4375 C-18.875 33.0975 -18.875 33.7575 -18.875 34.4375 C-16.62854465 36.25459175 -16.62854465 36.25459175 -13.875 38.0625 C-12.946875 38.69414063 -12.01875 39.32578125 -11.0625 39.9765625 C-10.340625 40.45867187 -9.61875 40.94078125 -8.875 41.4375 C-9.42355348 46.008779 -10.29244803 50.11185795 -11.875 54.4375 C-8.813604 53.41703467 -7.05328874 52.62659411 -4.8125 50.25 C-2.875 48.4375 -2.875 48.4375 -0.875 48.5 C1.37598681 49.55515007 3.15677847 50.92853016 5.125 52.4375 C5.785 52.4375 6.445 52.4375 7.125 52.4375 C7.125 53.0975 7.125 53.7575 7.125 54.4375 C8.115 53.9425 8.115 53.9425 9.125 53.4375 C8.95742187 52.76203125 8.78984375 52.0865625 8.6171875 51.390625 C8.41351563 50.49859375 8.20984375 49.6065625 8 48.6875 C7.79117188 47.80578125 7.58234375 46.9240625 7.3671875 46.015625 C7.0838602 42.99956017 7.40080222 41.90063969 9.125 39.4375 C11.0703125 37.734375 11.0703125 37.734375 13.25 36.1875 C13.97445312 35.66671875 14.69890625 35.1459375 15.4453125 34.609375 C15.99960938 34.22265625 16.55390625 33.8359375 17.125 33.4375 C14.11721479 32.43490493 11.58679353 32.13435358 8.4375 31.875 C7.44363281 31.79121094 6.44976562 31.70742187 5.42578125 31.62109375 C4.66652344 31.56050781 3.90726563 31.49992187 3.125 31.4375 C1.64 26.4875 1.64 26.4875 0.125 21.4375 C-0.535 21.4375 -1.195 21.4375 -1.875 21.4375 Z " fill="#29373C" transform="translate(126.875,84.5625)"/>
<path d="M0 0 C53.62686567 0 53.62686567 0 63.5 9.1875 C71.02730329 18.75344793 72.00810928 28.18894185 71 40 C70.42693975 43.0168544 69.52806588 45.34750828 68 48 C67.58621094 48.75796875 67.17242187 49.5159375 66.74609375 50.296875 C63.38254464 55.90584518 59.94857803 59.293397 54 62 C53.1440625 62.40347656 52.288125 62.80695313 51.40625 63.22265625 C40.58186277 67.42422761 29.34764231 65.92491356 18 65 C18.24363281 66.38251953 18.24363281 66.38251953 18.4921875 67.79296875 C19.22761818 72.95267767 19.14549293 78.11071016 19.125 83.3125 C19.13080078 84.81393555 19.13080078 84.81393555 19.13671875 86.34570312 C19.13542969 87.30025391 19.13414062 88.25480469 19.1328125 89.23828125 C19.13168457 90.10493408 19.13055664 90.97158691 19.12939453 91.86450195 C19 94 19 94 18 96 C12.06 96 6.12 96 0 96 C0 64.32 0 32.64 0 0 Z M18 16 C18 26.89 18 37.78 18 49 C21.63 49.0825 25.26 49.165 29 49.25 C30.12792969 49.28641602 31.25585938 49.32283203 32.41796875 49.36035156 C39.09797391 49.43336995 43.33165758 48.5993646 49 45 C52.56724871 40.39709844 53.37469057 35.94688402 53.27734375 30.16015625 C52.7793815 26.28166156 51.32142733 23.12888031 49 20 C42.37638082 15.33335922 33.80825428 15.85024399 26 15.9375 C23.36 15.958125 20.72 15.97875 18 16 Z " fill="#85C621" transform="translate(271,63)"/>
<path d="M0 0 C7.03327091 5.56119095 9.54747165 12.45400149 10.6875 21.125 C10.82195365 24.82081274 10.80388642 28.51310774 10.78515625 32.2109375 C10.7837413 33.26785797 10.78232635 34.32477844 10.78086853 35.41372681 C10.7752894 38.77584716 10.76274069 42.13789991 10.75 45.5 C10.74498231 47.78515529 10.74041987 50.07031162 10.73632812 52.35546875 C10.72532679 57.94533838 10.70807649 63.53515775 10.6875 69.125 C5.0775 69.125 -0.5325 69.125 -6.3125 69.125 C-6.9725 67.805 -7.6325 66.485 -8.3125 65.125 C-9.03953125 65.558125 -9.7665625 65.99125 -10.515625 66.4375 C-19.08506889 71.18365354 -25.74099766 72.72966918 -35.3359375 70.38671875 C-43.03360107 67.87930287 -47.75000247 64.11096468 -51.51953125 56.92578125 C-54.63590206 49.8487027 -52.75679738 43.12501119 -50.3125 36.125 C-47.50480898 30.19176615 -43.38355535 27.36996281 -37.3125 25.125 C-32.56010156 23.73164994 -27.85291284 23.94086672 -22.9375 23.9375 C-22.00421875 23.92525391 -21.0709375 23.91300781 -20.109375 23.90039062 C-15.10310233 23.88975407 -11.00294021 24.14058299 -6.3125 26.125 C-7.82745857 20.36076739 -8.94109901 16.3478406 -14.3125 13.125 C-21.64418975 10.68110342 -29.31950926 11.7155554 -36.3984375 14.45703125 C-38.76060671 15.2813801 -40.83142588 15.36510395 -43.3125 15.125 C-44.74273178 10.45290951 -45.71630045 5.99396303 -46.3125 1.125 C-32.99861096 -7.42366617 -13.64546541 -7.72384835 0 0 Z M-32.3125 39.125 C-34.60858476 42.40512109 -35.53446168 44.49104111 -34.98828125 48.51171875 C-33.99799399 52.06644931 -33.20401932 54.46947108 -30.1875 56.6875 C-22.55221738 57.84939083 -16.85971248 57.56169928 -10.3125 53.125 C-6.60138523 49.77302537 -6.61612728 45.90712961 -6.3125 41.125 C-6.6425 40.135 -6.9725 39.145 -7.3125 38.125 C-14.93782978 35.00478847 -25.227644 34.57969284 -32.3125 39.125 Z " fill="#85C521" transform="translate(566.3125,89.875)"/>
<path d="M0 0 C2.84562798 1.74983172 4.81999283 3.60334193 6.9375 6.19140625 C7.44023438 6.79082031 7.94296875 7.39023438 8.4609375 8.0078125 C14.76299358 15.86232629 16.92720536 24.00670582 17.5 33.94140625 C17.56477539 34.98748047 17.56477539 34.98748047 17.63085938 36.0546875 C17.73639596 37.76672547 17.8373991 39.47904186 17.9375 41.19140625 C14.99358252 42.17271208 13.24570355 42.28530082 10.19067383 42.21313477 C9.22990433 42.19303848 8.26913483 42.1729422 7.2792511 42.15223694 C6.24479355 42.12520187 5.210336 42.09816681 4.14453125 42.0703125 C2.55278328 42.03489601 2.55278328 42.03489601 0.92887878 41.99876404 C-2.4642167 41.92212174 -5.85708429 41.83809949 -9.25 41.75390625 C-11.54881693 41.70068615 -13.84764502 41.64794575 -16.14648438 41.59570312 C-21.7852976 41.46650579 -27.42394123 41.33124705 -33.0625 41.19140625 C-32.3140646 42.7869843 -31.55394202 44.37708301 -30.7890625 45.96484375 C-30.36705566 46.85091309 -29.94504883 47.73698242 -29.51025391 48.64990234 C-27.18238946 52.73642323 -24.37500744 55.32021658 -20.0625 57.19140625 C-13.67399393 58.38343071 -8.37327716 57.48613684 -2.71875 54.359375 C-0.98432081 53.22003741 -0.98432081 53.22003741 0.48828125 51.53515625 C0.96652344 51.09171875 1.44476562 50.64828125 1.9375 50.19140625 C4.625 50.50390625 4.625 50.50390625 6.9375 51.19140625 C6.9375 51.85140625 6.9375 52.51140625 6.9375 53.19140625 C7.535625 53.45953125 8.13375 53.72765625 8.75 54.00390625 C10.90974808 55.17634092 12.29540256 56.38509907 13.9375 58.19140625 C12.49672954 61.55320399 10.68999979 63.78296893 7.9375 66.19140625 C7.2775 66.19140625 6.6175 66.19140625 5.9375 66.19140625 C5.9375 66.85140625 5.9375 67.51140625 5.9375 68.19140625 C-2.94634845 72.95061078 -9.97064256 74.56364689 -20.0625 74.19140625 C-20.0625 73.53140625 -20.0625 72.87140625 -20.0625 72.19140625 C-21.5475 72.68640625 -21.5475 72.68640625 -23.0625 73.19140625 C-29.54203544 71.33828467 -34.9505318 67.45332051 -40.0625 63.19140625 C-40.805 62.57265625 -41.5475 61.95390625 -42.3125 61.31640625 C-48.64740357 53.62402335 -51.155962 43.07951251 -51 33.25390625 C-50.72124196 31.89239328 -50.40176719 30.53911593 -50.0625 29.19140625 C-49.82402344 28.03640625 -49.58554687 26.88140625 -49.33984375 25.69140625 C-46.8887223 14.56482582 -43.00063111 7.53924381 -33.3125 1.19140625 C-23.70406204 -4.60586358 -10.19441737 -4.94222599 0 0 Z M-29.8046875 19.41796875 C-32.11736932 22.67870647 -33.0625 25.21132429 -33.0625 29.19140625 C-22.1725 29.19140625 -11.2825 29.19140625 -0.0625 29.19140625 C-2.17780913 20.42390224 -2.17780913 20.42390224 -7.0625 14.19140625 C-16.68120894 9.11972335 -23.11694214 11.1195622 -29.8046875 19.41796875 Z " fill="#85C521" transform="translate(726.0625,87.80859375)"/>
<path d="M0 0 C6.17291836 2.7013923 10.51389378 7.94695525 13.22265625 14.015625 C14.80703435 18.43520601 15.53468314 21.84978277 15.43188477 26.55566406 C15.41178848 27.59644104 15.3916922 28.63721802 15.37098694 29.70953369 C15.34395187 30.82632507 15.31691681 31.94311646 15.2890625 33.09375 C15.25364601 34.81655182 15.25364601 34.81655182 15.21751404 36.57415771 C15.14094552 40.24227466 15.05689138 43.91017688 14.97265625 47.578125 C14.91942878 50.06509366 14.86668842 52.5520728 14.81445312 55.0390625 C14.68533944 61.13555262 14.54951207 67.23186074 14.41015625 73.328125 C8.80015625 73.328125 3.19015625 73.328125 -2.58984375 73.328125 C-3.71405155 65.45867043 -3.71405155 65.45867043 -3.65576172 62.17211914 C-3.64112381 61.07046165 -3.64112381 61.07046165 -3.62619019 59.94654846 C-3.60433151 58.79158119 -3.60433151 58.79158119 -3.58203125 57.61328125 C-3.56451709 55.94076125 -3.5476086 54.26823482 -3.53125 52.59570312 C-3.50033346 49.99110706 -3.46477645 47.38684088 -3.41845703 44.7824707 C-3.3758338 42.24686724 -3.35260515 39.7116471 -3.33203125 37.17578125 C-3.31341034 36.4078273 -3.29478943 35.63987335 -3.27560425 34.84864807 C-3.24992045 29.36440807 -4.2966895 25.33029225 -6.58984375 20.328125 C-9.80598964 17.33636138 -12.32601439 16.09469714 -16.65234375 15.890625 C-20.7528235 16.34623386 -22.53138829 16.60949792 -25.58984375 19.328125 C-29.65231134 25.26640156 -30.12814533 30.63063113 -29.9453125 37.6640625 C-29.93728104 38.62462555 -29.92924957 39.5851886 -29.92097473 40.57485962 C-29.89216176 43.61819639 -29.83590733 46.66022862 -29.77734375 49.703125 C-29.73483287 52.76727099 -29.69801037 55.83138887 -29.66584778 58.8956604 C-29.64414372 60.79661475 -29.61545804 62.69750464 -29.57914734 64.59823608 C-29.56616104 65.45317657 -29.55317474 66.30811707 -29.53979492 67.18896484 C-29.51836678 68.31859146 -29.51836678 68.31859146 -29.49650574 69.47103882 C-29.58984375 71.328125 -29.58984375 71.328125 -30.58984375 73.328125 C-33.4020408 73.52196679 -36.21438571 73.70849103 -39.02734375 73.890625 C-40.23100586 73.97473633 -40.23100586 73.97473633 -41.45898438 74.06054688 C-43.50046486 74.1897545 -45.54530744 74.2632523 -47.58984375 74.328125 C-48.58984375 73.328125 -48.58984375 73.328125 -48.71009827 70.43650818 C-48.70787766 69.14189163 -48.70565704 67.84727509 -48.70336914 66.51342773 C-48.70351517 65.80127106 -48.70366119 65.08911438 -48.70381165 64.3553772 C-48.70311245 61.99079388 -48.69531981 59.62628839 -48.6875 57.26171875 C-48.68563584 55.62647037 -48.68421193 53.99122143 -48.68321228 52.35597229 C-48.67938693 48.04377715 -48.6695565 43.73161548 -48.6585083 39.41943359 C-48.64829455 35.02246554 -48.64371474 30.62549211 -48.63867188 26.22851562 C-48.62793424 17.59503498 -48.61033731 8.96158801 -48.58984375 0.328125 C-42.64984375 0.328125 -36.70984375 0.328125 -30.58984375 0.328125 C-30.25984375 2.308125 -29.92984375 4.288125 -29.58984375 6.328125 C-28.98140625 5.8228125 -28.37296875 5.3175 -27.74609375 4.796875 C-19.03562998 -1.65911579 -10.43972845 -2.70834584 0 0 Z " fill="#84C520" transform="translate(423.58984375,85.671875)"/>
<path d="M0 0 C6.26643614 3.56747929 9.85263606 7.44316309 11.93676758 14.44995117 C13.07181634 19.18622161 13.23787099 23.81420706 13.3203125 28.66796875 C13.34205032 29.58499069 13.36378815 30.50201263 13.38618469 31.44682312 C13.42987053 33.37713396 13.46912106 35.30754978 13.50415039 37.23803711 C13.55824829 40.161022 13.62860554 43.08328097 13.70117188 46.00585938 C13.90341315 55.03901348 13.9974853 63.88146246 12.87109375 72.8671875 C7.59109375 72.8671875 2.31109375 72.8671875 -3.12890625 72.8671875 C-3.15863525 71.02942749 -3.15863525 71.02942749 -3.18896484 69.15454102 C-3.26548388 64.5752431 -3.35412723 59.99624391 -3.44628906 55.41723633 C-3.4843886 53.44171073 -3.51927338 51.46612024 -3.55078125 49.49047852 C-3.59684784 46.63794892 -3.65477042 43.78585875 -3.71484375 40.93359375 C-3.72639496 40.06134659 -3.73794617 39.18909943 -3.74984741 38.29042053 C-3.91770755 27.18694029 -3.91770755 27.18694029 -9.12890625 17.8671875 C-12.713924 15.21161879 -16.85011208 15.3560406 -21.12890625 15.8671875 C-25.1961312 17.17176909 -26.67595625 18.05436498 -28.76489258 21.80297852 C-30.71926354 26.69713676 -30.60708899 31.6260751 -30.640625 36.83203125 C-30.6585762 37.86534073 -30.6765274 38.89865021 -30.69502258 39.96327209 C-30.74893851 43.24370315 -30.78296166 46.52399025 -30.81640625 49.8046875 C-30.84959579 52.03712932 -30.88408696 54.2695522 -30.91992188 56.50195312 C-31.00465446 61.95692709 -31.07155512 67.41185973 -31.12890625 72.8671875 C-37.06890625 72.8671875 -43.00890625 72.8671875 -49.12890625 72.8671875 C-50.24979929 69.50450838 -50.25590001 66.96809791 -50.25830078 63.42382812 C-50.2600531 62.7747197 -50.26180542 62.12561127 -50.26361084 61.45683289 C-50.26801012 59.31234052 -50.26509814 57.1679307 -50.26171875 55.0234375 C-50.26239234 53.53275537 -50.26336283 52.04207335 -50.26461792 50.5513916 C-50.26609228 47.42764235 -50.26394871 44.30392171 -50.25927734 41.18017578 C-50.25358021 37.17519097 -50.25686061 33.17027318 -50.26284981 29.16529083 C-50.26646246 26.08725479 -50.26531359 23.00923464 -50.26272202 19.93119812 C-50.2620547 18.45440157 -50.26287437 16.97760358 -50.26520157 15.50080872 C-50.26773961 13.43734917 -50.26387123 11.37399832 -50.25830078 9.31054688 C-50.25750519 8.13600952 -50.25670959 6.96147217 -50.25588989 5.75134277 C-50.12890625 2.8671875 -50.12890625 2.8671875 -49.12890625 -0.1328125 C-43.18890625 -0.1328125 -37.24890625 -0.1328125 -31.12890625 -0.1328125 C-30.79890625 1.8471875 -30.46890625 3.8271875 -30.12890625 5.8671875 C-29.24203125 5.0834375 -28.35515625 4.2996875 -27.44140625 3.4921875 C-20.33216825 -2.79039492 -8.68534299 -3.1445062 0 0 Z " fill="#84C520" transform="translate(496.12890625,86.1328125)"/>
<path d="M0 0 C5.39969314 4.76530296 7.96504839 11.9011795 8.8125 18.875 C9.179968 25.83980054 9.26198721 32.29200313 6.8125 38.875 C6.1525 38.875 5.4925 38.875 4.8125 38.875 C4.4825 40.195 4.1525 41.515 3.8125 42.875 C3.1525 42.875 2.4925 42.875 1.8125 42.875 C1.8125 43.535 1.8125 44.195 1.8125 44.875 C1.1525 44.875 0.4925 44.875 -0.1875 44.875 C-0.1875 45.535 -0.1875 46.195 -0.1875 46.875 C-5.05910128 51.21682903 -9.72553888 53.52428103 -16.2421875 53.76953125 C-18.40574072 53.80085535 -18.40574072 53.80085535 -21.1875 54.875 C-25.01529527 54.35773037 -28.54816824 53.14085453 -32.1875 51.875 C-33.6725 51.38 -33.6725 51.38 -35.1875 50.875 C-35.1875 50.215 -35.1875 49.555 -35.1875 48.875 C-35.744375 48.6275 -36.30125 48.38 -36.875 48.125 C-42.29727245 45.19404192 -44.71306959 42.51686876 -46.70703125 36.77734375 C-47.1875 34.875 -47.1875 34.875 -47.1875 31.875 C-47.8475 31.545 -48.5075 31.215 -49.1875 30.875 C-49.55472131 21.10283302 -48.59103931 11.31405698 -43.1875 2.875 C-30.39439974 -9.6720791 -14.2916856 -9.5277904 0 0 Z M-21.1875 10.875 C-21.8475 13.515 -22.5075 16.155 -23.1875 18.875 C-27.1475 18.875 -31.1075 18.875 -35.1875 18.875 C-32.60965154 21.52252004 -30.27101902 23.81932065 -27.1875 25.875 C-27.5175 28.845 -27.8475 31.815 -28.1875 34.875 C-27.5275 34.875 -26.8675 34.875 -26.1875 34.875 C-26.1875 34.215 -26.1875 33.555 -26.1875 32.875 C-19.91057692 31.52115385 -19.91057692 31.52115385 -16.25 33.3125 C-15.2290625 34.0859375 -15.2290625 34.0859375 -14.1875 34.875 C-12.65304906 31.80609813 -13.63765711 29.17405734 -14.1875 25.875 C-13.1975 25.215 -12.2075 24.555 -11.1875 23.875 C-11.1875 23.215 -11.1875 22.555 -11.1875 21.875 C-10.548125 21.75125 -9.90875 21.6275 -9.25 21.5 C-8.569375 21.29375 -7.88875 21.0875 -7.1875 20.875 C-6.8575 20.215 -6.5275 19.555 -6.1875 18.875 C-9.8175 18.875 -13.4475 18.875 -17.1875 18.875 C-19.1875 13.125 -19.1875 13.125 -19.1875 10.875 C-19.8475 10.875 -20.5075 10.875 -21.1875 10.875 Z " fill="#29383B" transform="translate(193.1875,23.125)"/>
<path d="M0 0 C1.13298173 0.75905298 2.26129283 1.52543878 3.375 2.3125 C3.045 4.2925 2.715 6.2725 2.375 8.3125 C1.715 8.3125 1.055 8.3125 0.375 8.3125 C0.106875 9.281875 -0.16125 10.25125 -0.4375 11.25 C-0.829375 12.260625 -1.22125 13.27125 -1.625 14.3125 C-5.33281672 15.54843891 -6.30010253 14.8803132 -9.8125 13.375 C-10.71355469 12.99472656 -11.61460937 12.61445312 -12.54296875 12.22265625 C-13.23003906 11.92230469 -13.91710937 11.62195313 -14.625 11.3125 C-14.625 10.6525 -14.625 9.9925 -14.625 9.3125 C-16.3742214 9.23107073 -18.12454542 9.17311459 -19.875 9.125 C-20.84953125 9.09019531 -21.8240625 9.05539063 -22.828125 9.01953125 C-26.0368983 9.35564577 -27.33931803 10.0747694 -29.625 12.3125 C-30.37521244 14.76882332 -30.37521244 14.76882332 -29.625 17.3125 C-25.47596869 21.46153131 -20.80330964 22.794075 -15.375 24.5625 C-1.16575201 29.56459765 -1.16575201 29.56459765 3.375 36.3125 C6.31188225 42.88638814 7.05957321 49.20792481 5.23828125 56.19140625 C3.92973743 59.40651619 2.0727959 61.17935905 -0.625 63.3125 C-1.45 64.034375 -2.275 64.75625 -3.125 65.5 C-5.65411672 67.33360962 -7.66302817 68.34813708 -10.625 69.3125 C-11.800625 69.704375 -12.97625 70.09625 -14.1875 70.5 C-19.6549589 71.85374702 -25.10213084 70.99365386 -30.625 70.3125 C-30.625 69.6525 -30.625 68.9925 -30.625 68.3125 C-32.0790625 68.2196875 -32.0790625 68.2196875 -33.5625 68.125 C-40.0545106 67.2145351 -45.53847689 63.23934177 -50.625 59.3125 C-49.06798069 54.64144208 -46.54052627 51.22544315 -43.625 47.3125 C-39.90859118 48.01996096 -36.91167548 49.65361333 -33.5625 51.375 C-27.62299833 54.1606062 -22.16756156 55.78286662 -15.625 54.3125 C-13.7033606 52.75627302 -12.76322001 51.59815469 -11.6875 49.375 C-11.38315687 47.09826746 -11.38315687 47.09826746 -13.5 45.1875 C-14.20125 44.56875 -14.9025 43.95 -15.625 43.3125 C-15.955 42.6525 -16.285 41.9925 -16.625 41.3125 C-18.23041259 41.10755371 -19.83656745 40.90736395 -21.4453125 40.73046875 C-24.98901153 40.05094223 -28.18565211 38.57353638 -31.48828125 37.15234375 C-33.55258897 36.19056324 -33.55258897 36.19056324 -35.625 36.3125 C-35.625 35.6525 -35.625 34.9925 -35.625 34.3125 C-37.275 33.6525 -38.925 32.9925 -40.625 32.3125 C-40.625 31.6525 -40.625 30.9925 -40.625 30.3125 C-41.285 30.3125 -41.945 30.3125 -42.625 30.3125 C-45.377699 26.72564979 -47.1840898 23.8318296 -47.625 19.3125 C-47.74875 18.260625 -47.8725 17.20875 -48 16.125 C-47.37512247 9.77207846 -44.60274165 3.71902735 -39.8125 -0.625 C-27.50460256 -8.58893364 -12.31978547 -7.58140644 0 0 Z " fill="#84C421" transform="translate(214.625,90.6875)"/>
<path d="M0 0 C4.51132654 2.80550825 8.28588882 6.53201213 12.03515625 10.265625 C7.53515625 16.265625 7.53515625 16.265625 3.03515625 22.265625 C0.24264016 21.85191891 -1.04722406 21.19883015 -3.27734375 19.390625 C-7.37255715 16.15254929 -11.23765302 14.51685274 -16.40234375 13.765625 C-22.55137154 14.62864644 -27.13611694 17.70028379 -30.96484375 22.578125 C-33.26179389 26.64434755 -33.42288232 30.7517066 -33.46484375 35.328125 C-33.47128906 36.00077393 -33.47773437 36.67342285 -33.484375 37.36645508 C-33.33833927 43.10888894 -32.10076836 47.87757566 -28.2109375 52.2265625 C-27.61410156 52.69320312 -27.01726563 53.15984375 -26.40234375 53.640625 C-25.50322266 54.36378906 -25.50322266 54.36378906 -24.5859375 55.1015625 C-20.16904277 58.27321221 -15.20904483 57.80089518 -9.96484375 57.265625 C-6.507107 56.01165225 -3.81559568 54.21454061 -1.33984375 51.453125 C-0.65921875 50.8653125 -0.65921875 50.8653125 0.03515625 50.265625 C2.72265625 50.578125 2.72265625 50.578125 5.03515625 51.265625 C5.36515625 52.255625 5.69515625 53.245625 6.03515625 54.265625 C7.02515625 54.595625 8.01515625 54.925625 9.03515625 55.265625 C10.78515625 56.578125 10.78515625 56.578125 12.03515625 58.265625 C11.49931347 62.81072002 8.78578795 65.30265148 5.60546875 68.36328125 C0.9076853 71.84021216 -4.31964859 73.05740306 -9.96484375 74.265625 C-10.83496094 74.46285156 -11.70507812 74.66007812 -12.6015625 74.86328125 C-20.87154767 76.23495351 -28.24843166 73.36033 -35.40234375 69.328125 C-42.2847809 63.78860242 -46.65896759 58.83030787 -48.96484375 50.265625 C-49.62484375 49.935625 -50.28484375 49.605625 -50.96484375 49.265625 C-53.91838058 35.97470929 -52.26227432 22.76136813 -44.96484375 11.265625 C-34.1797406 -1.01188172 -15.56653491 -6.31326664 0 0 Z " fill="#84C421" transform="translate(633.96484375,86.734375)"/>
<path d="M0 0 C5.61 0 11.22 0 17 0 C17.93963526 6.57744682 18.07424953 12.39179187 18 19 C23.94 19.33 29.88 19.66 36 20 C36.495 27.425 36.495 27.425 37 35 C33.23699626 36.25433458 29.72789091 36.10695422 25.8125 36.0625 C25.06291016 36.05798828 24.31332031 36.05347656 23.54101562 36.04882812 C21.69397617 36.03706354 19.84697787 36.01912865 18 36 C17.97522513 41.03539677 17.95710451 46.07075781 17.94506836 51.10620117 C17.94004901 52.81812152 17.93323215 54.53003761 17.92456055 56.24194336 C17.91238979 58.70687922 17.90674762 61.17175825 17.90234375 63.63671875 C17.89718246 64.39836838 17.89202118 65.16001801 17.88670349 65.94474792 C17.88630362 69.75849825 18.07409039 73.29315771 19 77 C25.06820868 78.08360869 29.10106757 77.79074734 35 76 C35.19601608 77.74906659 35.38147403 79.49931846 35.5625 81.25 C35.71912109 82.71179688 35.71912109 82.71179688 35.87890625 84.203125 C36.08423913 88.94565217 36.08423913 88.94565217 35 91 C30.07265859 93.76809881 25.71426271 94.52213764 20.0625 94.4375 C19.3610083 94.43065186 18.6595166 94.42380371 17.93676758 94.41674805 C12.19111716 94.23846929 8.63254291 93.36086447 4 90 C0.71101379 85.75614683 -0.10167838 81.68607078 -0.20532227 76.41503906 C-0.22526749 75.51440735 -0.24521271 74.61377563 -0.26576233 73.68585205 C-0.28247482 72.72217712 -0.29918732 71.7585022 -0.31640625 70.765625 C-0.33718735 69.77246277 -0.35796844 68.77930054 -0.37937927 67.75604248 C-0.44469749 64.58743118 -0.50367739 61.41873789 -0.5625 58.25 C-0.60570207 56.10025198 -0.64931691 53.95051222 -0.69335938 51.80078125 C-0.80036077 46.53393792 -0.90167822 41.26701222 -1 36 C-3.97 35.67 -6.94 35.34 -10 35 C-10.18451025 24.44191344 -10.18451025 24.44191344 -9 20 C-6.03 20 -3.06 20 0 20 C0 13.4 0 6.8 0 0 Z " fill="#84C521" transform="translate(228,66)"/>
<path d="M0 0 C5.61 0 11.22 0 17 0 C17.67626412 3.38132061 18.12514572 5.81038412 18.12698364 9.11845398 C18.12980347 9.90495331 18.13262329 10.69145264 18.13552856 11.50178528 C18.13350433 12.35028549 18.1314801 13.19878571 18.12939453 14.07299805 C18.13114685 14.97759766 18.13289917 15.88219727 18.13470459 16.81420898 C18.13909709 19.79673189 18.136195 22.77919527 18.1328125 25.76171875 C18.13348611 27.83486441 18.13445661 29.90801 18.13571167 31.9811554 C18.13718497 36.32118483 18.13504523 40.66119366 18.13037109 45.0012207 C18.12466335 50.57340216 18.12796175 56.14553556 18.13394356 61.71771526 C18.13754999 65.99581772 18.13641039 70.2739087 18.13381577 74.55201149 C18.13314728 76.60738951 18.1339722 78.66276856 18.13629532 80.71814537 C18.13882432 83.58385371 18.13497819 86.44948312 18.12939453 89.31518555 C18.13141876 90.16975845 18.13344299 91.02433136 18.13552856 91.90480042 C18.1142662 97.77146761 18.1142662 97.77146761 17 100 C11.39 100 5.78 100 0 100 C0 67 0 34 0 0 Z " fill="#86C721" transform="translate(652,59)"/>
<path d="M0 0 C6.21754159 3.96886405 9.80147821 8.48111021 11.59375 15.68359375 C12.47598357 20.82221738 11.80017438 24.95110679 10.21875 29.87109375 C9.93 30.79921875 9.64125 31.72734375 9.34375 32.68359375 C6.83103947 37.56941978 2.41440179 41.13628927 -2.78125 42.87109375 C-9.42633224 43.80345963 -15.77713929 44.27077169 -21.40625 40.18359375 C-25.98352584 36.01622321 -29.41173936 31.61984967 -31.78125 25.87109375 C-31.83409189 23.11775322 -31.76496279 20.70132917 -31.46875 17.99609375 C-31.40751953 17.30773437 -31.34628906 16.619375 -31.28320312 15.91015625 C-31.13143142 14.22899277 -30.95851382 12.54976074 -30.78125 10.87109375 C-30.12125 10.87109375 -29.46125 10.87109375 -28.78125 10.87109375 C-28.595625 10.16984375 -28.41 9.46859375 -28.21875 8.74609375 C-23.04811583 -1.5951746 -10.31231121 -4.18575553 0 0 Z M-9.78125 12.87109375 C-10.44125 14.52109375 -11.10125 16.17109375 -11.78125 17.87109375 C-14.09125 17.87109375 -16.40125 17.87109375 -18.78125 17.87109375 C-18.348125 18.30421875 -17.915 18.73734375 -17.46875 19.18359375 C-16.911875 19.74046875 -16.355 20.29734375 -15.78125 20.87109375 C-15.20375 21.32484375 -14.62625 21.77859375 -14.03125 22.24609375 C-12.78125 23.87109375 -12.78125 23.87109375 -13.09375 26.55859375 C-13.320625 27.32171875 -13.5475 28.08484375 -13.78125 28.87109375 C-12.79125 28.21109375 -11.80125 27.55109375 -10.78125 26.87109375 C-7.59375 26.74609375 -7.59375 26.74609375 -4.78125 26.87109375 C-4.719375 26.12859375 -4.6575 25.38609375 -4.59375 24.62109375 C-3.53939862 21.05251985 -1.78215227 19.94864147 1.21875 17.87109375 C-1.75125 17.87109375 -4.72125 17.87109375 -7.78125 17.87109375 C-8.11125 16.22109375 -8.44125 14.57109375 -8.78125 12.87109375 C-9.11125 12.87109375 -9.44125 12.87109375 -9.78125 12.87109375 Z " fill="#29383B" transform="translate(238.78125,4.12890625)"/>
<path d="M0 0 C5.61 0 11.22 0 17 0 C17 24.09 17 48.18 17 73 C13.9020403 74.54897985 10.73783448 73.83239539 7.375 73.5625 C6.66859375 73.51029297 5.9621875 73.45808594 5.234375 73.40429688 C3.48920013 73.27458793 1.74454275 73.13795046 0 73 C-0.73182554 68.41021126 -1.12608052 64.00811849 -1.12939453 59.36206055 C-1.13254669 58.08771652 -1.13569885 56.8133725 -1.13894653 55.50041199 C-1.13715738 54.12918055 -1.13510659 52.75794943 -1.1328125 51.38671875 C-1.13348689 49.96661869 -1.13445804 48.54651874 -1.13571167 47.12641907 C-1.13717988 44.1636138 -1.13506078 41.20083884 -1.13037109 38.23803711 C-1.12464816 34.43709015 -1.12797446 30.63621341 -1.13394356 26.83526897 C-1.13755067 23.90911831 -1.13641035 20.98298442 -1.13381577 18.05683327 C-1.13314826 16.65456954 -1.13396878 15.2523043 -1.13629532 13.85004234 C-1.13882706 11.89701745 -1.13428593 9.94398721 -1.12939453 7.9909668 C-1.12859894 6.87956833 -1.12780334 5.76816986 -1.12698364 4.62309265 C-1 2 -1 2 0 0 Z " fill="#85C621" transform="translate(348,86)"/>
<path d="M0 0 C4.27168431 2.8154283 7.97849789 5.78935471 9.27734375 10.87890625 C10.13014297 16.06879862 9.98821863 19.32383223 7.1875 23.875 C4.90520016 26.91451147 4.19092668 27.68770943 0.4375 28.75 C-0.8928125 28.7809375 -0.8928125 28.7809375 -2.25 28.8125 C-2.58 29.4725 -2.91 30.1325 -3.25 30.8125 C-9.38239857 31.45129152 -13.33425186 30.75789231 -18.5234375 27.39453125 C-21.56297874 24.60943125 -23.07300558 21.99724645 -23.68359375 17.91015625 C-23.6971542 7.3736838 -23.6971542 7.3736838 -19.25 2.8125 C-13.04110396 -1.81373626 -7.33148723 -2.67881264 0 0 Z M-15.25 9.8125 C-12.4468826 15.5511987 -12.4468826 15.5511987 -7.4375 18.8125 C-6.715625 18.8125 -5.99375 18.8125 -5.25 18.8125 C-5.311875 18.02875 -5.37375 17.245 -5.4375 16.4375 C-5.375625 15.57125 -5.31375 14.705 -5.25 13.8125 C-4.26 13.1525 -3.27 12.4925 -2.25 11.8125 C-2.25 11.1525 -2.25 10.4925 -2.25 9.8125 C-6.54 9.8125 -10.83 9.8125 -15.25 9.8125 Z " fill="#2A3A3A" transform="translate(283.25,8.1875)"/>
<path d="M0 0 C3.11324457 2.57917333 5.48773876 4.89154608 6.9296875 8.734375 C6.9765625 11.171875 6.9765625 11.171875 6.6796875 13.734375 C6.59203125 14.58 6.504375 15.425625 6.4140625 16.296875 C5.62004461 20.29257795 4.51639197 22.24783959 1.3671875 24.859375 C-2.71829807 27.08782167 -6.40144064 28.47545724 -11.0703125 28.734375 C-14.67847593 27.55352151 -16.42082821 26.76764546 -18.4453125 23.546875 C-18.6515625 22.94875 -18.8578125 22.350625 -19.0703125 21.734375 C-19.7303125 21.734375 -20.3903125 21.734375 -21.0703125 21.734375 C-23.81020903 11.54467717 -23.81020903 11.54467717 -22.0703125 6.734375 C-16.89426464 -0.58255129 -16.89426464 -0.58255129 -13.109375 -2 C-8.48748051 -2.60208587 -4.05302084 -2.47769576 0 0 Z M-9.0703125 9.734375 C-9.0703125 10.394375 -9.0703125 11.054375 -9.0703125 11.734375 C-11.0503125 11.734375 -13.0303125 11.734375 -15.0703125 11.734375 C-11.58247736 14.98153562 -11.58247736 14.98153562 -7.0703125 15.734375 C-7.0703125 15.074375 -7.0703125 14.414375 -7.0703125 13.734375 C-5.7503125 13.404375 -4.4303125 13.074375 -3.0703125 12.734375 C-3.0703125 12.404375 -3.0703125 12.074375 -3.0703125 11.734375 C-4.7203125 11.734375 -6.3703125 11.734375 -8.0703125 11.734375 C-8.4003125 11.074375 -8.7303125 10.414375 -9.0703125 9.734375 Z " fill="#2B3B3A" transform="translate(364.0703125,34.265625)"/>
<path d="M0 0 C1.4540625 0.0309375 1.4540625 0.0309375 2.9375 0.0625 C3.2675 1.7125 3.5975 3.3625 3.9375 5.0625 C7.5675 5.3925 11.1975 5.7225 14.9375 6.0625 C15.5975 8.7025 16.2575 11.3425 16.9375 14.0625 C17.9275 14.0625 18.9175 14.0625 19.9375 14.0625 C20.1540625 12.639375 20.1540625 12.639375 20.375 11.1875 C20.9375 8.0625 20.9375 8.0625 21.9375 6.0625 C24.2475 6.0625 26.5575 6.0625 28.9375 6.0625 C28.73068604 6.64741211 28.52387207 7.23232422 28.31079102 7.83496094 C27.37197832 10.49348024 26.43596202 13.15297582 25.5 15.8125 C25.17451172 16.73289063 24.84902344 17.65328125 24.51367188 18.6015625 C24.20107422 19.49101562 23.88847656 20.38046875 23.56640625 21.296875 C23.27838135 22.11381836 22.99035645 22.93076172 22.69360352 23.77246094 C22.0057414 25.85581473 21.43703082 27.92716653 20.9375 30.0625 C20.2775 30.0625 19.6175 30.0625 18.9375 30.0625 C18.9375 31.0525 18.9375 32.0425 18.9375 33.0625 C11.1875 33.1875 11.1875 33.1875 8.9375 32.0625 C8.9375 30.4125 8.9375 28.7625 8.9375 27.0625 C10.5875 27.0625 12.2375 27.0625 13.9375 27.0625 C13.28059381 23.28010329 12.217369 19.84408474 10.875 16.25 C10.51277344 15.27417969 10.15054687 14.29835937 9.77734375 13.29296875 C9.50019531 12.55691406 9.22304688 11.82085937 8.9375 11.0625 C7.2875 11.0625 5.6375 11.0625 3.9375 11.0625 C3.9375 14.3625 3.9375 17.6625 3.9375 21.0625 C4.9275 21.0625 5.9175 21.0625 6.9375 21.0625 C6.9375 23.0425 6.9375 25.0225 6.9375 27.0625 C0.98046875 27.55078125 0.98046875 27.55078125 -1.0625 27.0625 C-4.10287338 23.37061804 -4.40441735 20.43399307 -4.25 15.75 C-4.22292969 14.68136719 -4.19585937 13.61273438 -4.16796875 12.51171875 C-4.13316406 11.70347656 -4.09835937 10.89523438 -4.0625 10.0625 C-4.7225 10.0625 -5.3825 10.0625 -6.0625 10.0625 C-6.0625 8.7425 -6.0625 7.4225 -6.0625 6.0625 C-5.4025 6.0625 -4.7425 6.0625 -4.0625 6.0625 C-4.0934375 4.8559375 -4.0934375 4.8559375 -4.125 3.625 C-4.03366838 -0.11959638 -3.80090148 0.07756942 0 0 Z " fill="#304535" transform="translate(381.0625,177.9375)"/>
<path d="M0 0 C3.15474868 1.22339663 3.78363353 2.15850452 6 5 C7.59872458 9.37319279 8.40401002 13.31050356 7.3125 17.875 C6.879375 18.57625 6.44625 19.2775 6 20 C5.59910156 20.67417969 5.19820313 21.34835938 4.78515625 22.04296875 C2.39424392 24.66407833 0.59465035 24.8794141 -2.875 25.4375 C-3.90367187 25.62183594 -4.93234375 25.80617188 -5.9921875 25.99609375 C-9.58151428 26.00075521 -11.13011569 25.07940741 -14 23 C-14.5775 22.5875 -15.155 22.175 -15.75 21.75 C-18.18619819 18.33932253 -18.25318831 14.59255445 -17.609375 10.54296875 C-17.12463669 8.34433428 -16.59566417 6.17097439 -16 4 C-15.34 4 -14.68 4 -14 4 C-14 3.34 -14 2.68 -14 2 C-9.51369549 -0.99086967 -5.25442767 -0.69808825 0 0 Z M-11 10 C-10.67 10.66 -10.34 11.32 -10 12 C-9.34 12 -8.68 12 -8 12 C-7.67 12.99 -7.34 13.98 -7 15 C-4.98491642 15.73323796 -4.98491642 15.73323796 -3 16 C-3.33 14.68 -3.66 13.36 -4 12 C-3.01 11.67 -2.02 11.34 -1 11 C-4.47325181 9.8422494 -7.36067448 9.93133348 -11 10 Z " fill="#2A3B3A" transform="translate(321,17)"/>
<path d="M0 0 C6 0 12 0 18 0 C18.9590625 -0.05220703 18.9590625 -0.05220703 19.9375 -0.10546875 C25.4284822 -0.32386009 25.4284822 -0.32386009 27.875 1.0625 C30.04989087 4.80814539 31 8.6926635 31 13 C31.020625 13.845625 31.04125 14.69125 31.0625 15.5625 C31 18 31 18 30 20 C28.02 20 26.04 20 24 20 C23.93941406 19.16855469 23.87882813 18.33710938 23.81640625 17.48046875 C23.73261719 16.39378906 23.64882813 15.30710938 23.5625 14.1875 C23.48128906 13.10855469 23.40007813 12.02960938 23.31640625 10.91796875 C23.09787539 7.94010095 23.09787539 7.94010095 22 5 C21.01 5.66 20.02 6.32 19 7 C18.41407366 10.11610554 18.41407366 10.11610554 18.3125 13.625 C18.24675781 14.81351563 18.18101562 16.00203125 18.11328125 17.2265625 C18.07589844 18.14179688 18.03851562 19.05703125 18 20 C16.02 20 14.04 20 12 20 C11.93941406 19.15695313 11.87882813 18.31390625 11.81640625 17.4453125 C11.73261719 16.34960938 11.64882813 15.25390625 11.5625 14.125 C11.48128906 13.03445312 11.40007813 11.94390625 11.31640625 10.8203125 C11.16998297 8.05271029 11.16998297 8.05271029 10 6 C8.68 6 7.36 6 6 6 C5.67 10.62 5.34 15.24 5 20 C3.35 20.33 1.7 20.66 0 21 C-1.86715507 19.13284493 -1.13245683 16.49606175 -1.13671875 14.015625 C-1.13091797 12.83226562 -1.13091797 12.83226562 -1.125 11.625 C-1.12886719 10.84382812 -1.13273438 10.06265625 -1.13671875 9.2578125 C-1.13100915 5.9234054 -1.06131005 3.18393014 0 0 Z " fill="#2F4236" transform="translate(595,184)"/>
<path d="M0 0 C1.65 0 3.3 0 5 0 C6.20514375 9.33986409 6.09213655 18.60207216 6 28 C2.69216735 29.10261088 0.04440731 29.23740779 -3.4375 29.3125 C-5.13712891 29.36857422 -5.13712891 29.36857422 -6.87109375 29.42578125 C-10 29 -10 29 -12.41015625 27.10546875 C-14 25 -14 25 -14 23 C-14.66 22.67 -15.32 22.34 -16 22 C-15.80924962 17.62227887 -15.43938673 13.93608477 -13.5625 9.9375 C-9.6354556 6.96827131 -5.75523318 7.59163074 -1 8 C-0.67 5.36 -0.34 2.72 0 0 Z M-8.125 13.6875 C-10.28115645 15.83579789 -10.28115645 15.83579789 -9.9375 18.5625 C-8.97076039 21.076023 -8.05615305 22.30143878 -6 24 C-3.00675737 22.9024777 -2.15389099 22.32317108 -0.75 19.375 C-0.37875 18.199375 -0.37875 18.199375 0 17 C-1.6454378 15.31237149 -3.31288577 13.6459651 -5 12 C-6.32173764 11.89635298 -6.32173764 11.89635298 -8.125 13.6875 Z " fill="#2D4037" transform="translate(532,176)"/>
<path d="M0 0 C3.83625 -0.12375 3.83625 -0.12375 7.75 -0.25 C8.54889648 -0.28641602 9.34779297 -0.32283203 10.17089844 -0.36035156 C13.62202444 -0.41424824 15.6075093 -0.28740448 18.421875 1.7734375 C20.74497088 5.05107278 21.8832639 7.96093089 22 12 C19.91153224 16.42755165 17.5105137 19.0669227 13 21 C9.6875 21.1875 9.6875 21.1875 7 21 C7 22.65 7 24.3 7 26 C4 27 4 27 0 26 C0 17.42 0 8.84 0 0 Z M10 4 C7.88077873 5.08743288 7.88077873 5.08743288 6 7 C5.25 10 5.25 10 6 13 C8.39056942 14.9354148 8.39056942 14.9354148 11 16 C14.01785339 14.35509414 14.01785339 14.35509414 14.875 12.1875 C15.05429345 9.0498647 13.81729754 7.4903707 12 5 C11.34 4.67 10.68 4.34 10 4 Z " fill="#2B3B39" transform="translate(628,184)"/>
<path d="M0 0 C3.125 1.5 3.125 1.5 5 3 C4.67 4.32 4.34 5.64 4 7 C2.33388095 7.042721 0.66617115 7.04063832 -1 7 C-1.33 6.67 -1.66 6.34 -2 6 C-3.66617115 5.95936168 -5.33388095 5.957279 -7 6 C-7 6.99 -7 7.98 -7 9 C-6.31292969 9.23074219 -5.62585938 9.46148437 -4.91796875 9.69921875 C2.34682184 12.32867801 2.34682184 12.32867801 5.25 15.3125 C6.32263271 19.15610056 5.54611777 21.36998437 4 25 C1.65927585 27.6874981 0.29637674 27.96010313 -3.25 28.4375 C-7.7511206 27.91236926 -11.23530331 26.51591925 -15 24 C-15.33 23.34 -15.66 22.68 -16 22 C-15.34 22 -14.68 22 -14 22 C-13.67 21.01 -13.34 20.02 -13 19 C-12.2265625 19.2165625 -12.2265625 19.2165625 -11.4375 19.4375 C-8.31490429 20.15809901 -5.17449308 20.57266439 -2 21 C-2 20.01 -2 19.02 -2 18 C-2.86625 17.7525 -3.7325 17.505 -4.625 17.25 C-8.67969543 15.74826095 -12.9892331 14.0215338 -15 10 C-14.765625 8.125 -14.765625 8.125 -14.25 6 C-14.09015625 5.29875 -13.9303125 4.5975 -13.765625 3.875 C-11.51558909 -1.63529202 -4.8959437 -0.53793012 0 0 Z " fill="#2E4136" transform="translate(443,177)"/>
<path d="M0 0 C3.125 1.5 3.125 1.5 5 3 C4.34 4.65 3.68 6.3 3 8 C2.278125 7.67 1.55625 7.34 0.8125 7 C-2.01697427 5.99396471 -4.02895466 5.83022598 -7 6 C-7 7.32 -7 8.64 -7 10 C-6.113125 10.12375 -5.22625 10.2475 -4.3125 10.375 C-3.219375 10.58125 -2.12625 10.7875 -1 11 C0.36125 11.2165625 0.36125 11.2165625 1.75 11.4375 C4.66051669 13.45869215 4.62468687 14.71479362 5.3125 18.125 C5.56290104 19.74686364 5.79866835 21.37131712 6 23 C0.39139804 27.89261022 0.39139804 27.89261022 -3.328125 28.1796875 C-7.25076798 27.77703209 -10.622209 27.12675729 -14 25 C-14.33 24.01 -14.66 23.02 -15 22 C-14.01 20.515 -14.01 20.515 -13 19 C-12.113125 19.33 -11.22625 19.66 -10.3125 20 C-7.29076653 20.91222143 -5.11626294 21.18330958 -2 21 C-2 20.01 -2 19.02 -2 18 C-4.64 17.34 -7.28 16.68 -10 16 C-10 15.34 -10 14.68 -10 14 C-11.32 13.34 -12.64 12.68 -14 12 C-14.47567568 4.86486486 -14.47567568 4.86486486 -12.625 1.5 C-8.53925771 -0.83470988 -4.5930276 -0.64554669 0 0 Z " fill="#2D3F37" transform="translate(575,177)"/>
<path d="M0 0 C2.41734542 -0.08117951 4.83194949 -0.14056926 7.25 -0.1875 C7.93191406 -0.21263672 8.61382812 -0.23777344 9.31640625 -0.26367188 C12.45476658 -0.30937615 14.64270911 -0.19535744 17.421875 1.32421875 C20.07284158 4.13923029 20.13715083 6.87472397 20.125 10.5625 C20.12886719 11.74005859 20.12886719 11.74005859 20.1328125 12.94140625 C20 15 20 15 19 17 C18.34 17 17.68 17 17 17 C16.34 18.32 15.68 19.64 15 21 C12.36 21 9.72 21 7 21 C6.67 22.65 6.34 24.3 6 26 C3 27 3 27 0 26 C-0.1967332 23.1670419 -0.38259641 20.33403677 -0.5625 17.5 C-0.61857422 16.70851562 -0.67464844 15.91703125 -0.73242188 15.1015625 C-1.05189484 9.90480221 -0.79686914 5.14718438 0 0 Z M9 4 C6.88077873 5.08743288 6.88077873 5.08743288 5 7 C4.25 10 4.25 10 5 13 C7.39056942 14.9354148 7.39056942 14.9354148 10 16 C11.65 14.35 13.3 12.7 15 11 C13.8321734 7.18586998 13.8321734 7.18586998 10.875 4.6875 C10.25625 4.460625 9.6375 4.23375 9 4 Z " fill="#2C3E38" transform="translate(452,184)"/>
<path d="M0 0 C2.57421875 0.44140625 2.57421875 0.44140625 5.26171875 2.44140625 C5.69484375 3.10140625 6.12796875 3.76140625 6.57421875 4.44140625 C6.24421875 5.43140625 5.91421875 6.42140625 5.57421875 7.44140625 C4.87296875 7.29703125 4.17171875 7.15265625 3.44921875 7.00390625 C0.49865734 6.4266225 -2.45848276 5.92445484 -5.42578125 5.44140625 C-5.42578125 6.76140625 -5.42578125 8.08140625 -5.42578125 9.44140625 C-3.56953125 10.09109375 -3.56953125 10.09109375 -1.67578125 10.75390625 C4.63106031 13.18734246 4.63106031 13.18734246 6.57421875 15.44140625 C7.38330438 18.12150241 7.88388156 20.64881074 7.57421875 23.44140625 C4.91618152 27.14181102 1.3594545 27.53610173 -2.91015625 28.28515625 C-6.53094829 28.51005017 -8.57603357 27.63351985 -11.42578125 25.44140625 C-12.30078125 23.25390625 -12.30078125 23.25390625 -12.42578125 21.44140625 C-11.10578125 20.78140625 -9.78578125 20.12140625 -8.42578125 19.44140625 C-7.43578125 20.10140625 -6.44578125 20.76140625 -5.42578125 21.44140625 C-2.80046601 21.60854194 -2.80046601 21.60854194 -0.42578125 21.44140625 C-0.09578125 20.45140625 0.23421875 19.46140625 0.57421875 18.44140625 C-0.66328125 18.19390625 -1.90078125 17.94640625 -3.17578125 17.69140625 C-6.96740701 16.71833415 -9.1615404 15.79248271 -11.42578125 12.44140625 C-12.59072412 8.43691514 -12.8167986 6.36029703 -11.17578125 2.50390625 C-7.43271232 -0.30339545 -4.58565956 -0.18979365 0 0 Z " fill="#2C3D38" transform="translate(278.42578125,176.55859375)"/>
<path d="M0 0 C1.98 0 3.96 0 6 0 C7.32 3.3 8.64 6.6 10 10 C10.474375 8.72125 10.94875 7.4425 11.4375 6.125 C12.21879534 4.01889951 12.99505737 2.00988527 14 0 C15.98 0 17.96 0 20 0 C19.22128318 2.98270792 18.42488365 5.96040495 17.625 8.9375 C17.29242187 10.21270508 17.29242187 10.21270508 16.953125 11.51367188 C16.73398437 12.32255859 16.51484375 13.13144531 16.2890625 13.96484375 C16.09006348 14.7137085 15.89106445 15.46257324 15.68603516 16.23413086 C15 18 15 18 13 19 C13.061875 19.763125 13.12375 20.52625 13.1875 21.3125 C13 24 13 24 12 25.8125 C8.76011038 27.73618446 5.7174181 27.18282384 2 27 C0.875 23.25 0.875 23.25 2 21 C4.0625 20.375 4.0625 20.375 6 20 C6 18.68 6 17.36 6 16 C5.34 15.67 4.68 15.34 4 15 C3.21066478 12.88262268 2.51582879 10.72945068 1.875 8.5625 C1.52179687 7.38816406 1.16859375 6.21382812 0.8046875 5.00390625 C0 2 0 2 0 0 Z " fill="#2F4335" transform="translate(715,184)"/>
<path d="M0 0 C3.39703114 2.35179079 4.88462294 5.04548132 6 9 C5.67 9.99 5.34 10.98 5 12 C-0.94 12.495 -0.94 12.495 -7 13 C-7 13.66 -7 14.32 -7 15 C-3.50765756 15.09978121 -0.40562852 14.77842938 3 14 C3.33 15.32 3.66 16.64 4 18 C-3.28571429 21.42857143 -3.28571429 21.42857143 -8 21 C-8 20.34 -8 19.68 -8 19 C-9.32 18.67 -10.64 18.34 -12 18 C-12 17.34 -12 16.68 -12 16 C-12.66 16 -13.32 16 -14 16 C-15.4469674 11.65909781 -14.40464616 8.27568118 -13 4 C-9.95365018 -0.9960137 -5.36384595 -0.97793876 0 0 Z M-6.5625 5.375 C-8.22085796 6.88807063 -8.22085796 6.88807063 -8 9 C-6.02 9 -4.04 9 -2 9 C-1.67 8.34 -1.34 7.68 -1 7 C-1.97850195 5.97895449 -2.97980427 4.9793879 -4 4 C-5.22177328 3.88989535 -5.22177328 3.88989535 -6.5625 5.375 Z " fill="#2C3D38" transform="translate(510,184)"/>
<path d="M0 0 C1.2065625 0.0309375 1.2065625 0.0309375 2.4375 0.0625 C3.10416667 4.72916667 3.77083333 9.39583333 4.4375 14.0625 C6.0875 14.0625 7.7375 14.0625 9.4375 14.0625 C9.7675 9.4425 10.0975 4.8225 10.4375 0.0625 C12.0875 0.0625 13.7375 0.0625 15.4375 0.0625 C16.49369003 4.34547531 16.55452092 8.49235646 16.5 12.875 C16.49548828 13.56787109 16.49097656 14.26074219 16.48632812 14.97460938 C16.47463156 16.67061068 16.45669924 18.36656703 16.4375 20.0625 C13.81243198 20.08940844 11.18763827 20.10929404 8.5625 20.125 C7.81613281 20.13337891 7.06976563 20.14175781 6.30078125 20.15039062 C0.6640625 20.17578125 0.6640625 20.17578125 -1.5625 19.0625 C-3.52080873 13.07877887 -4.08937817 7.34827912 -3.5625 1.0625 C-2.5625 0.0625 -2.5625 0.0625 0 0 Z " fill="#2E4136" transform="translate(332.5625,183.9375)"/>
<path d="M0 0 C2.99941508 0.672766 4.34176463 1.99230458 6.08984375 4.46875 C7.08984375 6.46875 7.08984375 6.46875 7.08984375 12.46875 C2.79984375 12.46875 -1.49015625 12.46875 -5.91015625 12.46875 C-5.91015625 13.45875 -5.91015625 14.44875 -5.91015625 15.46875 C-5.21148437 15.38496094 -4.5128125 15.30117187 -3.79296875 15.21484375 C-2.88289063 15.11300781 -1.9728125 15.01117188 -1.03515625 14.90625 C-0.13023437 14.80183594 0.7746875 14.69742188 1.70703125 14.58984375 C4.08984375 14.46875 4.08984375 14.46875 6.08984375 15.46875 C6.08984375 16.45875 6.08984375 17.44875 6.08984375 18.46875 C5.42984375 18.46875 4.76984375 18.46875 4.08984375 18.46875 C4.08984375 19.12875 4.08984375 19.78875 4.08984375 20.46875 C-5.64161641 22.19007658 -5.64161641 22.19007658 -10.09765625 19.65625 C-12.649561 15.16841751 -12.88325693 11.51118079 -11.91015625 6.46875 C-9.60532688 0.8776089 -5.68441903 -0.37833072 0 0 Z M-3.91015625 4.46875 C-3.91015625 5.12875 -3.91015625 5.78875 -3.91015625 6.46875 C-4.57015625 6.46875 -5.23015625 6.46875 -5.91015625 6.46875 C-6.24015625 7.45875 -6.57015625 8.44875 -6.91015625 9.46875 C-4.27015625 9.46875 -1.63015625 9.46875 1.08984375 9.46875 C0.75984375 8.14875 0.42984375 6.82875 0.08984375 5.46875 C-1.23015625 5.13875 -2.55015625 4.80875 -3.91015625 4.46875 Z " fill="#2C3D38" transform="translate(299.91015625,183.53125)"/>
<path d="M0 0 C3.23455844 2.10246298 3.84401275 3.40004902 4.8125 7.125 C5 10 5 10 4 12 C1.27734375 12.4140625 1.27734375 12.4140625 -2.0625 12.625 C-3.16722656 12.69976562 -4.27195312 12.77453125 -5.41015625 12.8515625 C-6.26480469 12.90054688 -7.11945313 12.94953125 -8 13 C-8 13.66 -8 14.32 -8 15 C-4.7 14.67 -1.4 14.34 2 14 C2.99 15.485 2.99 15.485 4 17 C2.5625 19 2.5625 19 0 21 C-3.02824418 21.35442445 -5.96485939 21.23347235 -9 21 C-9 20.34 -9 19.68 -9 19 C-9.63035156 18.75765625 -10.26070313 18.5153125 -10.91015625 18.265625 C-13 17 -13 17 -13.93359375 15.046875 C-14.83695373 10.92923415 -15.22077283 8.63907924 -13.8125 4.5625 C-10.10692068 -0.67642248 -5.95328522 -0.86123475 0 0 Z M-6 4 C-6 4.66 -6 5.32 -6 6 C-6.99 6.33 -7.98 6.66 -9 7 C-9 7.66 -9 8.32 -9 9 C-6.36 9 -3.72 9 -1 9 C-1.79117904 7.00016466 -1.79117904 7.00016466 -3 5 C-3.99 4.67 -4.98 4.34 -6 4 Z " fill="#2C3D38" transform="translate(489,184)"/>
<path d="M0 0 C3.09929591 0.63762918 4.5402401 1.8930481 6.31640625 4.4765625 C4.06640625 6.1015625 4.06640625 6.1015625 1.31640625 7.4765625 C-0.99609375 6.6640625 -0.99609375 6.6640625 -2.68359375 5.4765625 C-4.30853276 6.59765816 -4.30853276 6.59765816 -5.68359375 8.4765625 C-5.93408011 11.60205267 -5.93408011 11.60205267 -5.68359375 14.4765625 C-2.76876597 15.28623688 -1.22246158 15.69502243 1.62890625 14.5390625 C2.18578125 14.1884375 2.74265625 13.8378125 3.31640625 13.4765625 C4.30640625 14.7965625 5.29640625 16.1165625 6.31640625 17.4765625 C5.98640625 18.1365625 5.65640625 18.7965625 5.31640625 19.4765625 C4.32640625 19.4765625 3.33640625 19.4765625 2.31640625 19.4765625 C1.98640625 20.1365625 1.65640625 20.7965625 1.31640625 21.4765625 C-6.33124476 21.65441485 -6.33124476 21.65441485 -9.68359375 20.4765625 C-12.88899453 16.93956853 -13.28233354 13.31007773 -13.08203125 8.703125 C-11.77646844 1.4073328 -6.87848761 -0.38954177 0 0 Z " fill="#2E4236" transform="translate(321.68359375,183.5234375)"/>
<path d="M0 0 C2.27734375 1.0234375 2.27734375 1.0234375 4 2 C3.34 3.32 2.68 4.64 2 6 C-1.11257569 6 -3.10765685 5.82638376 -6 5 C-7.21676146 7.57667134 -8.05184833 9.37782003 -7.8125 12.25 C-7.544375 12.8275 -7.27625 13.405 -7 14 C-3.37673261 15.2077558 -2.35853631 14.54311128 1 13 C1.99 14.32 2.98 15.64 4 17 C-0.56513531 20.97986155 -0.56513531 20.97986155 -4.2265625 21.03125 C-8.17256614 20.3449885 -11.28789006 19.26580806 -14.1875 16.4375 C-16.36730558 12.30338598 -16.25076188 10.42514802 -14.91796875 6.05859375 C-11.99353522 -0.499604 -6.43627906 -0.99019678 0 0 Z " fill="#2D4037" transform="translate(686,184)"/>
<path d="M0 0 C1.65 0 3.3 0 5 0 C5 1.98 5 3.96 5 6 C6.98 6 8.96 6 11 6 C10.67 7.32 10.34 8.64 10 10 C8.35 10 6.7 10 5 10 C5 13.63 5 17.26 5 21 C6.65 21 8.3 21 10 21 C10.33 22.32 10.66 23.64 11 25 C8 27 8 27 4.4375 26.875 C1 26 1 26 -0.20703125 24.3046875 C-1.17221801 21.4994649 -1.19549192 19.21066046 -1.125 16.25 C-1.09792969 14.77273437 -1.09792969 14.77273437 -1.0703125 13.265625 C-1.04710937 12.51796875 -1.02390625 11.7703125 -1 11 C-1.66 10.67 -2.32 10.34 -3 10 C-3 8.68 -3 7.36 -3 6 C-2.01 6 -1.02 6 0 6 C0 4.02 0 2.04 0 0 Z " fill="#2A3A39" transform="translate(703,178)"/>
<path d="M0 0 C3.96 0 7.92 0 12 0 C12.33 1.65 12.66 3.3 13 5 C12.38125 5.04125 11.7625 5.0825 11.125 5.125 C8.71659935 5.83869012 8.71659935 5.83869012 7.75 8.625 C6.95898403 12.18457187 6.92874777 15.36613652 7 19 C6.67 19.33 6.34 19.66 6 20 C4.02 20 2.04 20 0 20 C0 13.4 0 6.8 0 0 Z " fill="#2B3C38" transform="translate(352,184)"/>
<path d="M0 0 C1.65 0 3.3 0 5 0 C6.01894076 5.84888043 6.11798453 11.50919169 6.0625 17.4375 C6.05798828 18.35982422 6.05347656 19.28214844 6.04882812 20.23242188 C6.03713938 22.48835048 6.02075455 24.74413967 6 27 C4.125 28.0625 4.125 28.0625 2 29 C1.34 28.67 0.68 28.34 0 28 C0 18.76 0 9.52 0 0 Z " fill="#2C3E37" transform="translate(652,176)"/>
<path d="M0 0 C1.98 0 3.96 0 6 0 C6 6.6 6 13.2 6 20 C3 21 3 21 0.8125 20.0625 C-0.0846875 19.5365625 -0.0846875 19.5365625 -1 19 C-1.02697137 16.39576408 -1.04682489 13.79180756 -1.0625 11.1875 C-1.07087891 10.44951172 -1.07925781 9.71152344 -1.08789062 8.95117188 C-1.10259828 5.70077932 -1.03531702 3.10595105 0 0 Z " fill="#334C31" transform="translate(585,184)"/>
<path d="M0 0 C2.31 0 4.62 0 7 0 C7 6.6 7 13.2 7 20 C5.02 20 3.04 20 1 20 C-0.05619003 15.71702469 -0.11702092 11.57014354 -0.0625 7.1875 C-0.05798828 6.49462891 -0.05347656 5.80175781 -0.04882812 5.08789062 C-0.03713156 3.39188932 -0.01919924 1.69593297 0 0 Z " fill="#334A32" transform="translate(366,184)"/>
<path d="M0 0 C1.65 0 3.3 0 5 0 C6.14544072 6.29992398 6.34294666 12.6050535 6 19 C5 20 5 20 2.4375 20.0625 C1.633125 20.041875 0.82875 20.02125 0 20 C-1.17829199 17.64341603 -1.04414372 16.47426764 -0.87890625 13.8671875 C-0.83056641 13.06152344 -0.78222656 12.25585938 -0.73242188 11.42578125 C-0.67634766 10.58402344 -0.62027344 9.74226562 -0.5625 8.875 C-0.51029297 8.02550781 -0.45808594 7.17601562 -0.40429688 6.30078125 C-0.27448622 4.20020876 -0.1378826 2.10005809 0 0 Z " fill="#2C3E37" transform="translate(692,184)"/>
<path d="M0 0 C1.65 0 3.3 0 5 0 C6.05619003 4.28297531 6.11702092 8.42985646 6.0625 12.8125 C6.05798828 13.50537109 6.05347656 14.19824219 6.04882812 14.91210938 C6.03713156 16.60811068 6.01919924 18.30406703 6 20 C4.02 20 2.04 20 0 20 C0 13.4 0 6.8 0 0 Z " fill="#2D3F37" transform="translate(662,184)"/>
<path d="M0 0 C1.65 0 3.3 0 5 0 C5 1.98 5 3.96 5 6 C3.35 6 1.7 6 0 6 C-1.24546405 3.50907189 -0.7767578 2.58919267 0 0 Z " fill="#29373B" transform="translate(410,198)"/>
<path d="M0 0 C1.98 0 3.96 0 6 0 C6.33 0.99 6.66 1.98 7 3 C6.67 3.66 6.34 4.32 6 5 C4.02 5 2.04 5 0 5 C0 3.35 0 1.7 0 0 Z " fill="#2E4137" transform="translate(367,176)"/>
<path d="M0 0 C1.65 0 3.3 0 5 0 C5 1.98 5 3.96 5 6 C3.35 6 1.7 6 0 6 C0 4.02 0 2.04 0 0 Z " fill="#27333D" transform="translate(542,198)"/>
<path d="M0 0 C1.65 0 3.3 0 5 0 C5.33 1.65 5.66 3.3 6 5 C4.02 5 2.04 5 0 5 C0 3.35 0 1.7 0 0 Z " fill="#2C3C38" transform="translate(662,176)"/>
<path d="M0 0 C1.65 0 3.3 0 5 0 C5.5625 1.9375 5.5625 1.9375 6 4 C5 5 5 5 2.4375 5.0625 C1.2309375 5.0315625 1.2309375 5.0315625 0 5 C0 3.35 0 1.7 0 0 Z " fill="#29383A" transform="translate(585,176)"/>
<path d="M0 0 C1.65 0 3.3 0 5 0 C5 1.65 5 3.3 5 5 C3.35 5 1.7 5 0 5 C0 3.35 0 1.7 0 0 Z " fill="#27333D" transform="translate(692,176)"/>
</svg>
