<svg xmlns="http://www.w3.org/2000/svg" viewBox="0 10 100 100" width="100" height="100">
  <title>PharmaSync</title>
  <path fill="#0C7A1F" d="M83.7 46.7h-20v-20c0-3.6-1.4-6.9-3.9-9.4s-5.8-3.9-9.4-3.9c-7.3 0-13.3 5.9-13.3 13.3v20.1h-20C9.7 46.7 3.8 52.7 3.8 60s5.9 13.3 13.3 13.3h20.1v20.1c0 7.3 5.9 13.3 13.3 13.3s13.3-5.9 13.3-13.3V73.2h20.1c3.6 0 6.9-1.4 9.4-3.9s3.9-5.8 3.9-9.4c-.3-7.3-6.2-13.2-13.5-13.2zM87.6 64c-1 1.1-2.5 1.7-4 1.7H59.8c-2.1 0-3.8 1.7-3.8 3.8v23.9c0 3.1-2.5 5.7-5.7 5.7-3.1 0-5.7-2.5-5.7-5.7v-24c0-2.1-1.7-3.8-3.8-3.8H17.1c-3.1 0-5.7-2.5-5.7-5.7 0-3.1 2.5-5.7 5.7-5.7H41c2.1 0 3.8-1.7 3.8-3.8V26.7c0-3.1 2.5-5.7 5.7-5.7 1.5 0 2.9.6 4 1.7 1.1 1 1.7 2.5 1.7 4v23.9c0 2.1 1.7 3.8 3.8 3.8h23.9c3.1 0 5.7 2.5 5.7 5.7-.3 1.4-.9 2.8-2 3.9z"/>
</svg>
