<?xml version="1.0" standalone="no"?>
<!DOCTYPE svg PUBLIC "-//W3C//DTD SVG 20010904//EN"
 "http://www.w3.org/TR/2001/REC-SVG-20010904/DTD/svg10.dtd">
<svg version="1.0" xmlns="http://www.w3.org/2000/svg"
 width="581.000000pt" height="569.000000pt" viewBox="0 0 581.000000 569.000000"
 preserveAspectRatio="xMidYMid meet">

<g transform="translate(0.000000,569.000000) scale(0.100000,-0.100000)"
fill="#2563EB" stroke="none">
<path d="M3095 5240 c-203 -20 -309 -78 -362 -198 -18 -42 -23 -70 -23 -142 0
-49 5 -92 10 -95 6 -3 10 -13 10 -22 0 -30 69 -109 117 -135 84 -45 137 -53
260 -40 174 19 275 13 432 -24 176 -42 382 -168 498 -302 61 -71 143 -186 143
-201 0 -6 5 -11 10 -11 6 0 10 -4 10 -10 0 -5 11 -33 24 -62 83 -184 116 -435
81 -623 -39 -212 -78 -311 -180 -454 -159 -227 -364 -362 -648 -430 -66 -15
-279 -14 -357 3 -188 40 -320 113 -484 267 -117 110 -191 149 -285 149 -93 0
-217 -87 -267 -187 -25 -50 -29 -69 -29 -143 0 -66 5 -96 22 -133 45 -98 259
-290 446 -401 154 -91 282 -143 422 -170 44 -9 102 -21 128 -26 27 -6 125 -10
219 -10 339 0 589 72 877 254 313 198 566 522 685 877 19 57 39 131 46 164 6
33 17 85 23 115 17 78 16 476 -1 560 -62 297 -114 444 -223 627 -206 343 -510
599 -859 723 -19 6 -44 16 -55 20 -137 54 -469 83 -690 60z"/>
<path d="M2375 4230 c-190 -37 -275 -64 -413 -131 -211 -102 -337 -188 -477
-326 -280 -273 -448 -601 -514 -1004 -29 -178 -3 -565 49 -719 59 -175 119
-316 177 -415 99 -166 313 -393 489 -517 74 -52 240 -143 329 -180 331 -136
725 -163 1043 -71 167 48 264 205 231 374 -15 83 -38 127 -87 171 -72 65 -184
92 -287 68 -98 -22 -276 -31 -384 -21 -60 6 -122 15 -138 20 -15 5 -48 15 -73
22 -83 25 -234 106 -314 169 -77 60 -246 242 -246 264 0 3 -15 29 -33 58 -96
152 -150 352 -150 553 -1 247 80 471 241 666 159 193 352 317 602 386 77 21
344 21 422 0 150 -41 320 -140 466 -271 106 -96 138 -110 247 -111 86 0 92 2
145 36 114 74 152 141 152 270 0 119 -26 173 -146 294 -135 136 -289 237 -491
320 -115 48 -152 58 -306 90 -107 21 -151 25 -285 24 -106 -1 -189 -7 -249
-19z"/>
</g>
</svg>
