<?xml version="1.0" encoding="UTF-8"?>
<svg version="1.1" xmlns="http://www.w3.org/2000/svg" width="425" height="425">
<path d="M0 0 C140.25 0 280.5 0 425 0 C425 140.25 425 280.5 425 425 C284.75 425 144.5 425 0 425 C0 284.75 0 144.5 0 0 Z " fill="#FEFEFE" transform="translate(0,0)"/>
<path d="M0 0 C0.6811084 0.22558594 1.3622168 0.45117188 2.06396484 0.68359375 C22.86418511 7.72810748 42.49672813 18.46383639 59 33 C59.87398437 33.76441406 60.74796875 34.52882812 61.6484375 35.31640625 C82.51084519 53.8294437 97.48816697 76.23012218 108 102 C108.59554687 103.38638672 108.59554687 103.38638672 109.203125 104.80078125 C113.07536608 114.43528584 114.91669263 124.86266928 117 135 C117.37705078 136.80984375 117.37705078 136.80984375 117.76171875 138.65625 C125.39873692 182.42015557 111.58849686 227.43328018 86.75390625 263.23828125 C81.35130598 270.66324526 75.3171957 277.35981986 69 284 C68.37996094 284.68449219 67.75992188 285.36898438 67.12109375 286.07421875 C62.56620157 290.93480839 57.3884266 294.94352592 52.125 299 C51.3623584 299.589021 50.5997168 300.17804199 49.81396484 300.78491211 C49.09418457 301.33026611 48.3744043 301.87562012 47.6328125 302.4375 C46.65658936 303.17806641 46.65658936 303.17806641 45.66064453 303.93359375 C44 305 44 305 42 305 C41.99589111 304.41210693 41.99178223 303.82421387 41.98754883 303.21850586 C41.78223639 286.37467347 39.99941981 272.14375766 30 258 C29.49597656 257.27425781 28.99195313 256.54851562 28.47265625 255.80078125 C19.31702611 243.57251333 7.5311739 232.94220835 -4 223 C-7.53430294 219.86016521 -11.01005993 216.65703116 -14.46533203 213.43066406 C-15.94820671 212.04828328 -17.44073923 210.67628486 -18.93359375 209.3046875 C-33.17431239 195.75526588 -41.67405502 177.84149418 -42.30078125 158.08203125 C-42.31926161 155.99226556 -42.3227765 153.90232213 -42.3125 151.8125 C-42.31121094 150.72203369 -42.30992187 149.63156738 -42.30859375 148.50805664 C-42.20805648 140.02208267 -41.23678222 132.18822064 -39 124 C-38.67 124 -38.34 124 -38 124 C-37.87625 124.6084375 -37.7525 125.216875 -37.625 125.84375 C-36.20439128 131.88133707 -34.0880927 137.00651647 -31.1875 142.4375 C-27.92031678 148.58793134 -25.73480298 154.66898563 -23.875 161.375 C-20.03074072 175.05547334 -13.08238854 186.83997887 -0.75390625 194.6015625 C3.41862249 196.72037851 7.77728819 198.24896776 12.1809082 199.81665039 C17.24762168 201.64037919 21.65973935 203.7726267 26 207 C26.845625 207.5775 27.69125 208.155 28.5625 208.75 C30.88769606 210.89633483 32.60463017 213.0394163 34.5 215.5625 C37.97957901 220.26044502 37.97957901 220.26044502 43 223 C49.08018374 223.45689242 53.46824061 221.79312571 58.09765625 217.90625 C66.52053643 209.46607438 74.94297175 195.14253562 75.24609375 182.95703125 C75.08889536 180.83182706 75.08889536 180.83182706 73.75 178.5 C67.81341974 175.26186531 60.95399661 175.04124979 54.3125 174.625 C47.83058577 174.08792711 43.31940027 172.08746025 38.5 167.75 C36.52018996 164.12034826 36.21664683 160.99510116 37 157 C39.01557757 153.18479961 41.1126956 149.99918512 45 148 C49.62303416 147.42212073 53.2118648 148.27139426 57.6875 149.5 C63.76258609 151.11644787 69.73120759 151.78615149 76 151 C78.59169186 148.40830814 78.43848939 146.94113325 78.81640625 143.328125 C79.00299805 141.61882812 79.00299805 141.61882812 79.19335938 139.875 C79.31517578 138.67875 79.43699219 137.4825 79.5625 136.25 C79.81253992 133.90090698 80.06380244 131.5519437 80.31640625 129.203125 C80.42412354 128.15801758 80.53184082 127.11291016 80.64282227 126.03613281 C80.99967613 123.00275301 81.48730676 120.01041597 82 117 C82.45738822 112.08120214 82.5292474 108.19080664 80.5 103.625 C75.92918065 98.82563968 70.92131578 97.16588014 64.5625 95.6875 C49.83578232 91.82808433 42.50799668 77.34818747 34.66040039 65.43652344 C31.07335021 60.02636352 27.22487052 54.93303929 23 50 C22.23042969 49.09636719 21.46085937 48.19273438 20.66796875 47.26171875 C14.95654254 40.75878781 8.89115902 35.22526457 2 30 C0.95199219 29.19820312 -0.09601563 28.39640625 -1.17578125 27.5703125 C-20.56898402 13.05097264 -42.60470147 3.217486 -65.91943359 -3.14941406 C-67.96129619 -3.71462105 -69.98336529 -4.35050308 -72 -5 C-72.33 -5.66 -72.66 -6.32 -73 -7 C-49.10624149 -11.16127255 -22.85875682 -7.58565729 0 0 Z " fill="#EC212B" transform="translate(267,53)"/>
<path d="M0 0 C1.09965088 0.00016113 2.19930176 0.00032227 3.33227539 0.00048828 C11.44192806 0.11486984 20.53012617 0.28012617 26.625 6.375 C26.04234375 6.68091064 25.4596875 6.98682129 24.859375 7.30200195 C7.93167412 16.2366208 -7.91768736 25.74825357 -22.375 38.375 C-22.89690918 38.82987793 -23.41881836 39.28475586 -23.95654297 39.75341797 C-31.53674666 46.40861 -38.2898228 53.29056351 -44.375 61.375 C-44.77283691 61.89255859 -45.17067383 62.41011719 -45.58056641 62.94335938 C-65.37893072 88.80560039 -75.68315862 118.99747541 -75.4375 151.5 C-75.43298828 152.64726562 -75.42847656 153.79453125 -75.42382812 154.9765625 C-75.41216339 157.77609813 -75.39579614 160.57551986 -75.375 163.375 C-74.91351563 162.65957031 -74.45203125 161.94414062 -73.9765625 161.20703125 C-68.79972383 153.29854055 -63.28669399 145.74976675 -57.375 138.375 C-56.94848145 137.84261719 -56.52196289 137.31023437 -56.08251953 136.76171875 C-42.6777172 120.17346505 -27.49778876 105.73770089 -9.375 94.375 C-8.715 94.705 -8.055 95.035 -7.375 95.375 C-8.15810547 96.21417969 -8.15810547 96.21417969 -8.95703125 97.0703125 C-13.90756694 102.46301512 -18.53132193 108.00293084 -23.00952148 113.78881836 C-25.46261886 116.9537652 -27.94407686 120.08383145 -30.5078125 123.16015625 C-38.29482742 132.51589729 -45.25798974 142.24432639 -52.01660156 152.36474609 C-53.66516941 154.80441318 -55.38994665 157.18379782 -57.125 159.5625 C-61.76520397 166.16011012 -65.54623028 173.28770286 -69.375 180.375 C-69.94605469 181.42042969 -70.51710937 182.46585938 -71.10546875 183.54296875 C-84.04972114 208.20027214 -83.96288551 234.22325829 -84.375 261.375 C-85.035 261.375 -85.695 261.375 -86.375 261.375 C-104.41701547 239.0794081 -116.56802306 211.60656071 -121.375 183.375 C-121.59800781 182.17230469 -121.82101563 180.96960938 -122.05078125 179.73046875 C-125.09425055 160.28953221 -124.77506444 139.56032036 -120.375 120.375 C-120.20871094 119.58899414 -120.04242188 118.80298828 -119.87109375 117.99316406 C-117.13823888 105.11332028 -113.01610433 93.26414744 -107.375 81.375 C-106.99714355 80.57674805 -106.61928711 79.77849609 -106.22998047 78.95605469 C-98.07934549 62.02964224 -87.38811285 47.85011686 -74.375 34.375 C-73.56546875 33.51390625 -72.7559375 32.6528125 -71.921875 31.765625 C-52.77121082 11.87364478 -27.86965247 -0.03811669 0 0 Z " fill="#07090A" transform="translate(167.375,61.625)"/>
<path d="M0 0 C0.02916504 0.92184082 0.05833008 1.84368164 0.08837891 2.79345703 C0.72589533 21.08319507 2.01691504 38.95127618 5.125 57 C10.10289881 86.23524959 9.29749401 110.10411509 -8.21875 135.17578125 C-9.5077865 136.80938713 -10.83761444 138.41223215 -12.21875 139.96875 C-14.0476116 141.94885366 -14.0476116 141.94885366 -15.40625 144.21875 C-16.81166055 146.34320781 -17.82427589 147.66986299 -20 149 C-24.23023729 149.26689194 -27.95702491 148.16554237 -32 147 C-33.2684375 146.649375 -34.536875 146.29875 -35.84375 145.9375 C-44.87847264 143.32798306 -53.44431728 139.89016198 -62 136 C-62 135.34 -62 134.68 -62 134 C-60.49609375 132.51953125 -60.49609375 132.51953125 -58.4375 130.8125 C-34.2488179 110.05513707 -25.21767006 82.49747203 -20.375 51.8125 C-13.64705722 10.02990274 -13.64705722 10.02990274 -4.43359375 1.671875 C-2 0 -2 0 0 0 Z " fill="#07090A" transform="translate(205,235)"/>
<path d="M0 0 C0 3.36319388 -0.62856646 4.46271218 -2.2734375 7.33203125 C-3.00929077 8.63756958 -3.00929077 8.63756958 -3.76000977 9.96948242 C-4.55942993 11.37677612 -4.55942993 11.37677612 -5.375 12.8125 C-9.73100151 20.64524447 -13.83239994 28.53682854 -17.5625 36.6875 C-18.16940674 37.99328003 -18.16940674 37.99328003 -18.78857422 39.32543945 C-23.10503994 48.91545255 -26.20918632 59.06549728 -26.05004883 69.65966797 C-26.03706253 70.74875458 -26.02407623 71.83784119 -26.01069641 72.95993042 C-25.99298691 74.12557526 -25.9752774 75.29122009 -25.95703125 76.4921875 C-25.93462217 78.99738773 -25.91316908 81.50259666 -25.89257812 84.0078125 C-25.85569529 87.92862861 -25.81289618 91.84899257 -25.75317383 95.76953125 C-25.38352605 121.26069999 -27.66166932 140.17090167 -45 160 C-46.06734375 161.23169922 -46.06734375 161.23169922 -47.15625 162.48828125 C-55.42348771 171.84714366 -64.0563456 180.42589728 -74 188 C-83.03035791 184.82976797 -91.39000795 176.80158602 -98 170 C-98 169.34 -98 168.68 -98 168 C-96.44291628 166.77119892 -94.82582798 165.61818749 -93.1875 164.5 C-64.11627525 143.75083317 -50.89842918 111.83121787 -45.1688385 77.57133484 C-44.9228322 76.08747937 -44.6775434 74.60350478 -44.43295288 73.11941528 C-39.84074484 45.29719429 -31.41316314 22.47096842 -8.30859375 4.62890625 C-5.61861451 2.73090059 -3.02905461 1.27539142 0 0 Z " fill="#080A0B" transform="translate(193,168)"/>
<path d="M0 0 C1.86916617 3.51123739 3.21829913 7.1578519 4.625 10.875 C11.4193826 28.15636444 22.01738023 42.11194493 34.75 55.44140625 C36.66137935 57.61493658 37.90331279 59.35174962 39 62 C39.66 62 40.32 62 41 62 C41 62.66 41 63.32 41 64 C31.90366554 66.98105261 22.91784032 69.40040206 13.4375 70.8125 C12.61797852 70.9360083 11.79845703 71.0595166 10.95410156 71.18676758 C5.92347445 71.88557972 1.07774549 72.11051222 -4 72 C-3.50550929 56.42756284 -2.82800043 40.87038506 -2 25.3125 C-1.95820618 24.50954498 -1.91641235 23.70658997 -1.87335205 22.87930298 C-1.75208577 20.56127869 -1.62670651 18.24351386 -1.5 15.92578125 C-1.46458099 15.24334351 -1.42916199 14.56090576 -1.39266968 13.85778809 C-1.13074594 9.1995487 -0.61808927 4.62118305 0 0 Z " fill="#090B0C" transform="translate(229,314)"/>
<path d="M0 0 C4.70855337 5.09032797 5.16149439 9.10361495 5.125 15.8125 C5.13080078 16.86147461 5.13080078 16.86147461 5.13671875 17.93164062 C5.12899562 22.05965562 4.80084632 25.95127695 4 30 C2.92167097 27.88725579 1.9019311 25.77411095 0.95703125 23.59765625 C-2.15929081 16.69494971 -5.06612499 12.98990539 -12.12109375 10.14453125 C-22.02497936 7.0228265 -32.72940396 6.26802516 -43 5 C-43 1 -43 1 -41 -1 C-38.9597168 -1.41064453 -38.9597168 -1.41064453 -36.44921875 -1.6328125 C-35.52882812 -1.71700439 -34.6084375 -1.80119629 -33.66015625 -1.88793945 C-32.67917969 -1.96616943 -31.69820312 -2.04439941 -30.6875 -2.125 C-29.19476563 -2.24911255 -29.19476563 -2.24911255 -27.671875 -2.37573242 C-5.54782008 -4.12530211 -5.54782008 -4.12530211 0 0 Z " fill="#0C0E0F" transform="translate(275,117)"/>
</svg>
